<?xml version="1.0" encoding="utf-8"?>
<!-- Generator: Adobe Illustrator 27.9.0, SVG Export Plug-In . SVG Version: 6.00 Build 0)  -->
<svg version="1.1" xmlns="http://www.w3.org/2000/svg" xmlns:xlink="http://www.w3.org/1999/xlink" x="0px" y="0px"
	 viewBox="0 0 69.3 136.4" style="enable-background:new 0 0 69.3 136.4;" xml:space="preserve">
<style type="text/css">
	.st0{fill:none;stroke:#EEBACA;stroke-miterlimit:10;}
</style>
<g id="facebook">
	<path class="st0" d="M20.6,104.4c0-10.1,0-20.3,0-30.4c0-1.7,0-1.7-1.7-1.7c-5.7,0-11.4,0-17.1,0c-1.6,0-1.7-0.1-1.7-1.7
		c0-7,0-14,0-21c0-1.2,0.4-1.4,1.5-1.4c5.8,0,11.6,0,17.5,0c1.6,0,1.6,0,1.6-1.6c0-5.2,0-10.3,0-15.5c0.1-6.1,1.3-12,4.3-17.3
		c3.4-6,8.5-9.8,15-11.9c6.1-2,12.3-1.8,18.6-1.5c3.1,0.1,6.2,0.4,9.2,0.6c1.1,0.1,1.6,0.6,1.6,1.8c-0.1,6.1,0,12.2,0,18.3
		c0,1.7,0,1.7-1.8,1.7c-3.7,0-7.3,0-11,0c-2.3,0-4.5,0.3-6.6,1.2c-3.1,1.4-4.6,4.2-4.8,7.4c-0.4,5.3-0.1,10.6-0.2,15.8
		c0,1,0.6,1,1.3,1c6.8,0,13.7,0,20.5,0c1.6,0,1.7,0,1.5,1.6c-0.8,6.4-1.6,12.7-2.4,19.1c-0.1,0.7-0.2,1.3-0.2,2
		c0,1.1-0.5,1.5-1.6,1.5c-5.8,0-11.6,0-17.5,0c-1.6,0-1.6,0-1.6,1.7c0,20.2,0,40.4,0,60.6c0,1.9,0,1.9-1.9,1.9c-7,0-14.1,0-21.1,0
		c-1.1,0-1.4-0.4-1.4-1.4C20.6,124.8,20.5,114.6,20.6,104.4C20.5,104.4,20.6,104.4,20.6,104.4z"/>
</g>
<g id="rouner">
</g>
<g id="triangle">
</g>
<g id="outer-rounder">
</g>
<g id="inner-rounder">
</g>
<g id="outer_circle">
</g>
<g id="inner-circle">
</g>
<g id="small_circle">
</g>
<g id="outer-x">
</g>
<g id="inner-x">
</g>
</svg>
