<?xml version="1.0" encoding="utf-8"?>
<!-- Generator: Adobe Illustrator 27.9.0, SVG Export Plug-In . SVG Version: 6.00 Build 0)  -->
<svg version="1.1" xmlns="http://www.w3.org/2000/svg" xmlns:xlink="http://www.w3.org/1999/xlink" x="0px" y="0px"
	 viewBox="0 0 132.9 136.4" style="enable-background:new 0 0 132.9 136.4;" xml:space="preserve">
<style type="text/css">
	.st0{fill:none;stroke:#EEBACA;stroke-miterlimit:10;}
</style>
<g id="facebook">
</g>
<g id="rouner">
</g>
<g id="triangle">
</g>
<g id="outer-rounder">
</g>
<g id="inner-rounder">
</g>
<g id="outer_circle">
</g>
<g id="inner-circle">
</g>
<g id="small_circle">
</g>
<g id="outer-x">
	<path class="st0" d="M0.4,0.5C1.2-0.2,2,0.1,2.7,0.1c11.5,0,23,0,34.4-0.1C39,0,40,0.6,41,2.1c10.5,15.3,21,30.5,31.5,45.9
		c1.2,1.8,1.8,2.2,3.5,0.3C89.2,32.8,102.5,17.4,115.7,2c1.3-1.5,2.5-2.1,4.5-2c2.7,0.1,5.5,0,8.8,0c-2.4,2.8-4.5,5.2-6.5,7.7
		C108.4,23.8,94.6,40,80.6,56c-1.3,1.4-0.9,2.3,0,3.6c17,24.6,34,49.3,50.9,74c0.3,0.4,0.5,0.8,0.8,1.2c0.9,1.3,0.3,1.5-0.9,1.5
		c-0.4,0-0.8,0-1.2,0c-11.2,0-22.5,0-33.7,0c-2,0-3.1-0.6-4.3-2.2c-11.1-16.3-22.3-32.5-33.5-48.7c-1.2-1.8-1.8-2-3.3-0.2
		c-14,16.4-28.1,32.6-42.1,49c-1.4,1.6-2.8,2.3-4.9,2.2c-2.6-0.2-5.2,0-8.5,0c3-3.5,5.6-6.6,8.3-9.7c14-16.2,27.9-32.4,41.9-48.5
		c1.5-1.7,1.7-2.9,0.3-4.8C34.4,50,18.3,26.6,2.2,3.3C1.6,2.4,1,1.4,0.4,0.5z"/>
</g>
<g id="inner-x">
	<g>
		<path class="st0" d="M108.2,128.1c2.3,0,4.7,0,7,0c0.6,0,1.5,0.3,1.8-0.4c0.3-0.7-0.4-1.2-0.8-1.7c-13.3-19-26.6-38-39.9-57
			C62.7,49.5,49,30,35.3,10.4c-1-1.4-2-2-3.7-1.9c-4.4,0.1-8.8,0-13.2,0c-0.7,0-1.7-0.4-2.1,0.3c-0.6,0.9,0.5,1.5,0.9,2.1
			C43.9,49,70.5,87.1,97.1,125.2c1.6,2.3,3.2,3.3,5.9,3C104.7,128,106.5,128.1,108.2,128.1z"/>
	</g>
</g>
</svg>
