<?xml version="1.0" encoding="utf-8"?>
<!-- Generator: Adobe Illustrator 27.9.0, SVG Export Plug-In . SVG Version: 6.00 Build 0)  -->
<svg version="1.1" id="Layer_1" xmlns="http://www.w3.org/2000/svg" xmlns:xlink="http://www.w3.org/1999/xlink" x="0px" y="0px"
	 viewBox="0 0 334.1 334.9" style="enable-background:new 0 0 334.1 334.9;" xml:space="preserve">
<style type="text/css">
	.st0{fill:#9E98DE;}
	.st1{fill:#F46CB6;}
	.st2{fill:#FC6570;}
	.st3{fill:#21D1A8;}
</style>
<path class="st0" d="M299,334.9c1.9-0.2,2.7-1.6,3.7-2.6c9.5-9.4,18.7-19,28.4-28.2c3.6-3.4,3.9-5.2,0.2-8.9
	c-41.4-41.1-82.6-82.4-123.9-123.5c-3.6-3.6-3.8-5.4-0.1-9c41.6-41.3,83-82.9,124.6-124.3c2.9-2.9,3-4.5,0-7.4
	c-9.7-9.3-19.3-18.9-28.6-28.7c-3.2-3.4-4.8-2.8-7.8,0.2c-41.4,41.6-82.9,83-124.3,124.6c-3.4,3.4-5,3.4-8.4,0
	C121.4,85.5,79.9,44.1,38.5,2.5c-3-3-4.6-3.5-7.8-0.2C21.5,12,12.1,21.5,2.4,30.6c-3.5,3.3-2.9,5.1,0.2,8.2
	c41.6,41.4,83,82.9,124.6,124.3c3.2,3.2,3.3,4.8,0,8C85.7,212.4,44.4,253.8,2.9,295.1c-3.4,3.4-4.1,5.2-0.2,8.9
	c9.5,8.9,18.7,18.1,27.6,27.6c3.3,3.5,5.1,3.4,8.5,0c41.1-41.4,82.5-82.5,123.6-123.9c3.5-3.5,5.3-4.1,9.1-0.2
	c41.2,41.5,82.6,82.8,124,124.2C296.7,332.7,297.9,333.9,299,334.9z"/>
</svg>
