<?xml version="1.0" encoding="utf-8"?>
<!-- Generator: Adobe Illustrator 27.9.0, SVG Export Plug-In . SVG Version: 6.00 Build 0)  -->
<svg version="1.1" id="Layer_1" xmlns="http://www.w3.org/2000/svg" xmlns:xlink="http://www.w3.org/1999/xlink" x="0px" y="0px"
	 viewBox="0 0 339.5 339.5" style="enable-background:new 0 0 339.5 339.5;" xml:space="preserve">
<style type="text/css">
	.st0{fill:#9E98DE;}
	.st1{fill:#F46CB6;}
	.st2{fill:#FC6570;}
	.st3{fill:#21D1A8;}
</style>
<path class="st1" d="M339.5,6.2c0-4.8-1.3-6.2-6.1-6.2C224.2,0.1,115,0.1,5.9,0C1.4,0,0,1.1,0,5.8c0.1,109.3,0.1,218.6,0,327.9
	c0,4.5,1.1,5.8,5.7,5.8c54.5-0.2,109-0.1,163.5-0.1c54.8,0,109.6-0.1,164.5,0.1c4.7,0,5.8-1.5,5.8-5.9
	C339.3,224.5,339.3,115.3,339.5,6.2z M287.9,293.8c-79-0.1-158-0.1-237,0c-4.2,0-5.3-1.2-5.3-5.3c0.2-39.5,0.1-79,0.1-118.5
	c0,0,0.1,0,0.1,0c0-39.3,0.1-78.7-0.1-118c0-4.4,1-5.9,5.7-5.9c78.8,0.2,157.7,0.2,236.5,0c4.6,0,5.4,1.4,5.4,5.6
	c-0.1,78.8-0.1,157.7,0,236.5C293.4,292.5,292.5,293.8,287.9,293.8z"/>
<path class="st3" d="M744.8,639.7C680,529.1,615.2,418.5,550.4,307.9c-2.6-4.4-5.2-8.9-8.3-14.1c-68.7,117.2-137,233.7-205.3,350.3
	c2.4,1.2,4.2,0.8,6,0.8c133,0,266,0,398.9,0c1.7,0,4.1,1.1,5-0.8C747.5,642.6,745.7,641.1,744.8,639.7z M425.4,597.4
	c39.2-66.9,78.1-133.3,117.5-200.6c39.4,67.2,78.3,133.5,117.6,200.6C581.7,597.4,504.1,597.4,425.4,597.4z"/>
</svg>
