<?xml version="1.0" encoding="utf-8"?>
<!-- Generator: Adobe Illustrator 27.9.0, SVG Export Plug-In . SVG Version: 6.00 Build 0)  -->
<svg version="1.1" id="Layer_1" xmlns="http://www.w3.org/2000/svg" xmlns:xlink="http://www.w3.org/1999/xlink" x="0px" y="0px"
	 viewBox="0 0 410.1 351.4" style="enable-background:new 0 0 410.1 351.4;" xml:space="preserve">
<style type="text/css">
	.st0{fill:#9E98DE;}
	.st1{fill:#F46CB6;}
	.st2{fill:#FC6570;}
	.st3{fill:#21D1A8;}
</style>
<path class="st3" d="M408.1,345.9C343.3,235.3,278.4,124.7,213.6,14.1c-2.6-4.4-5.2-8.9-8.3-14.1C136.6,117.2,68.3,233.7,0,350.3
	c2.4,1.2,4.2,0.8,6,0.8c133,0,266,0,398.9,0c1.7,0,4.1,1.1,5-0.8C410.7,348.8,408.9,347.3,408.1,345.9z M88.6,303.6
	c39.2-66.9,78.1-133.3,117.5-200.6c39.4,67.2,78.3,133.5,117.6,200.6C244.9,303.6,167.3,303.6,88.6,303.6z"/>
</svg>
