<?xml version="1.0" encoding="utf-8"?>
<!-- Generator: Adobe Illustrator 27.9.0, SVG Export Plug-In . SVG Version: 6.00 Build 0)  -->
<svg version="1.1" id="Layer_1" fill="rgba(57, 57, 57, 1)" xmlns="http://www.w3.org/2000/svg" xmlns:xlink="http://www.w3.org/1999/xlink" x="0px" y="0px"
	 viewBox="0 0 136.4 136.2" style="enable-background:new 0 0 136.4 136.2;" xml:space="preserve">
<style type="text/css">

</style>
<g>
	<path class="st0" d="M68.2,136.2c-10.3-0.1-20.7,0.2-31-0.6c-11.3-0.9-21.3-4.8-28.5-14c-5.1-6.6-7.4-14.2-7.8-22.4
		c-1-20.6-1.1-41.2,0-61.9C1.4,24.9,6.2,14.3,17,7.1c6-4,12.8-5.9,19.9-6.3c20.9-1,41.8-1.1,62.7,0c12.5,0.7,23,5.7,30,16.5
		c3.8,5.9,5.7,12.4,6,19.3c1.1,21,1.2,42.1,0,63.1c-0.7,12.2-5.6,22.6-16.2,29.5c-6.2,4.1-13.2,5.8-20.5,6.3
		C88.6,136.4,78.4,136.1,68.2,136.2z M12.1,68c0.1,9.7,0,19.4,0.6,29.1c0.4,5.9,1.5,11.6,5.1,16.6c5.2,7.1,12.7,9.6,21,10
		c19.7,0.9,39.4,0.9,59.1,0c5.8-0.3,11.3-1.7,16.1-5.2c6.8-5.1,9.3-12.4,9.7-20.5c1-19.8,0.9-39.7,0-59.5
		c-0.3-5.7-1.7-11.2-5.2-15.9c-5.1-6.9-12.5-9.4-20.7-9.8c-19.8-1-39.5-0.9-59.3,0c-7,0.3-13.5,2.2-18.7,7.5c-5.2,5.3-6.8,12-7.2,19
		C12,48.8,12.1,58.4,12.1,68z"/>
	<path class="st0" d="M68.2,103c-19.3,0-34.8-15.5-34.9-34.8C33.3,49,48.8,33.4,68,33.3c19.4,0,35,15.5,35,34.9
		C103,87.5,87.5,103,68.2,103z M68.2,91C80.9,90.9,91.1,80.7,91,68C91,55.5,80.6,45.3,67.9,45.3c-12.4,0.1-22.7,10.5-22.6,23
		C45.4,80.8,55.8,91.1,68.2,91z"/>
	<path class="st0" d="M104.7,39.8c-4.5,0.1-8-3.4-8.1-7.9c-0.1-4.4,3.4-8.1,7.8-8.2c4.4-0.1,8.2,3.6,8.3,8
		C112.7,36.1,109.1,39.7,104.7,39.8z"/>
</g>
</svg>
