<?xml version="1.0" encoding="utf-8"?>
<!-- Generator: Adobe Illustrator 27.9.0, SVG Export Plug-In . SVG Version: 6.00 Build 0)  -->
<svg version="1.1" id="Layer_1" fill="rgba(57, 57, 57, 1)" xmlns="http://www.w3.org/2000/svg" xmlns:xlink="http://www.w3.org/1999/xlink" x="0px" y="0px"
	 viewBox="0 0 136.4 95.1" style="enable-background:new 0 0 136.4 95.1;" xml:space="preserve">
<style type="text/css">

</style>
<path class="st0" d="M68.3,0c15.3-0.1,30.6,0.3,45.9,1.1c4.8,0.3,9.5,0.9,13.5,4.1c4.2,3.3,5.9,7.9,6.8,12.8
	c1.5,7.9,1.7,15.9,1.9,23.8c0.2,10.6,0,21.2-1.3,31.7c-0.7,5.3-1.9,10.4-5.6,14.5c-3.5,3.8-8,5.3-13,5.6
	c-22.3,1.4-44.7,1.8-67.1,1.2c-9.3-0.3-18.6-0.3-27.9-1.1c-1.6-0.1-3.2-0.4-4.8-0.7c-9-1.6-13.1-7.7-14.7-16c-1.5-7.9-1.7-16-1.9-24
	c-0.2-10.5,0-20.9,1.2-31.3c0.4-3.7,1.3-7.4,3-10.8C7.2,5,12.1,2.1,18.5,1.5C32.3,0.3,46.2,0.1,60.1,0C62.8,0,65.6,0,68.3,0z
	 M53.9,46C53.9,46,54,46,53.9,46c0,5.7,0,11.5,0,17.2c0,1.9,0.1,1.9,1.8,1.1C67,58.6,78.1,52.8,89.3,47.1c0.5-0.2,1.2-0.3,1.2-1
	c0-0.6-0.7-0.7-1.2-1C78.1,39.3,67,33.5,55.8,27.8c-1.7-0.9-1.9-0.8-1.9,1.2C53.9,34.7,53.9,40.4,53.9,46z"/>
</svg>
