<?xml version="1.0" encoding="utf-8"?>
<!-- Generator: Adobe Illustrator 27.8.1, SVG Export Plug-In . SVG Version: 6.00 Build 0)  -->
<svg version="1.1" id="Layer_1" xmlns="http://www.w3.org/2000/svg" xmlns:xlink="http://www.w3.org/1999/xlink" x="0px" y="0px"
	 viewBox="0 0 100.1 97.3" style="enable-background:new 0 0 100.1 97.3;" xml:space="preserve">
<g id="p6Vu1k.tif">
	<g>
		<path d="M44.3,33.9c1.1-0.1,1.9,0.6,2.6,1.3c3.5,3.6,7.1,7.1,10.5,10.8c1.9,2,1.9,3.3-0.1,5.3c-3.4,3.6-6.9,7.1-10.3,10.6
			c-1.4,1.4-3.1,2.2-4.8,0.6c-1.6-1.6-0.9-3.3,0.6-4.7c2.4-2.5,4.8-5,7.3-7.4c1.5-1.4,1.2-2.3-0.1-3.6c-2.6-2.5-5.1-5.2-7.6-7.8
			c-1-1-1.4-2.3-0.7-3.6C42.1,34.3,43.1,33.8,44.3,33.9z"/>
	</g>
</g>
</svg>
