<?xml version="1.0" encoding="utf-8"?>
<!-- Generator: Adobe Illustrator 27.9.0, SVG Export Plug-In . SVG Version: 6.00 Build 0)  -->
<svg version="1.1" id="Layer_1" fill="white" xmlns="http://www.w3.org/2000/svg" xmlns:xlink="http://www.w3.org/1999/xlink" x="0px" y="0px"
	 viewBox="0 0 301.8 300.5" style="enable-background:new 0 0 301.8 300.5;" xml:space="preserve">
<g>
	<path d="M301.8,50c-1.2,1.3-2.2,2.4-3.2,3.4c-30.9,30.9-61.7,61.8-92.7,92.6c-3.5,3.5-3.2,5.1,0.1,8.4
		c30.9,30.6,61.5,61.5,92.4,92.1c3.2,3.2,3,4.7-0.1,7.7c-14.9,14.6-29.6,29.3-44.2,44.2c-2.7,2.7-4.1,2.9-7,0.1
		c-30.9-31.1-62-62-92.8-93.1c-3-3.1-4.6-3.2-7.7-0.1c-30.9,31.1-61.9,62-92.9,93.1c-2.6,2.6-4,3.1-6.9,0.2
		C32,283.4,17.1,268.4,2,253.6c-2.8-2.7-2.5-4,0.1-6.6c31.2-31,62.2-62.2,93.5-93.2c2.9-2.9,3-4.4,0-7.3
		c-31.1-30.9-62-61.9-93.1-92.8c-2.9-2.9-3.1-4.4,0-7.3C17.1,31.9,31.7,17.3,46.2,2.5c3.1-3.1,4.7-3.5,8-0.1
		c30.4,30.7,61,61.1,91.5,91.6c4.8,4.8,4.8,4.8,9.7-0.2c30.3-30.3,60.6-60.5,90.7-91c3.8-3.8,5.7-3.4,9.1,0.2
		c14.3,14.7,28.9,29.1,43.4,43.6C299.7,47.6,300.6,48.8,301.8,50z"/>
</g>
</svg>
