<?xml version="1.0" encoding="utf-8"?>
<!-- Generator: Adobe Illustrator 27.8.1, SVG Export Plug-In . SVG Version: 6.00 Build 0)  -->
<svg version="1.1" id="Layer_1" xmlns="http://www.w3.org/2000/svg" xmlns:xlink="http://www.w3.org/1999/xlink" x="0px" y="0px"
	 viewBox="0 0 100.1 97.3" style="enable-background:new 0 0 100.1 97.3;" xml:space="preserve">
<g>
	<path d="M33.9,24.5c2.4-0.3,4.9,0.5,7.2,2c1.8,1.2,3.8,1.6,5.9,1.5c1.6-0.1,3.2-0.1,4.7,0c2.9,0.1,5.3-0.5,8-1.9
		c6.8-3.7,17-2,19.8,7.7c2.7,9.2,4.8,18.5,7,27.8c1,4.1-1.6,8.3-5.7,10.3c-4.2,2-8.4,1.4-11.3-2c-3-3.6-5.7-7.3-8.4-11.1
		c-1-1.4-2.2-2.1-4-2.1c-4.8,0.1-9.7,0.1-14.5,0c-1.7,0-2.7,0.5-3.7,1.9c-2.6,3.7-5.5,7.3-8.2,10.9c-4.6,6-13.1,3.4-15.9-1.3
		c-1.6-2.6-1.9-5.3-1.1-8.4c2.2-8.3,4.2-16.7,6.3-25.1C21.8,28,26.6,24.4,33.9,24.5z M49.9,53C49.9,53,49.9,53,49.9,53
		c3.1,0,6.2,0,9.2,0c1.9,0,3.4,0.7,4.5,2.3c2.5,3.5,5.1,7,7.6,10.5c2.1,3,4.8,4,7.7,2.7c3-1.3,4.1-3.9,3.2-7.7c-2-8-4.1-15.9-5.9-24
		c-1.8-7.7-9-10.9-15.6-6.6c-2,1.3-4.2,2-6.6,1.9c-2.7-0.1-5.3-0.1-8,0c-2.5,0.1-4.7-0.6-6.8-2c-5.6-3.7-13.1-1.7-15,5.2
		c-0.9,3.2-1.6,6.4-2.4,9.7c-1.4,5.8-2.9,11.6-4.1,17.4c-0.6,3.1,1,5.2,4,6.3c2.4,0.9,4.7,0,6.5-2.3c2.7-3.7,5.5-7.3,8.1-11
		c1.2-1.7,2.6-2.4,4.6-2.3C43.9,53,46.9,53,49.9,53z"/>
</g>
</svg>
