<?xml version="1.0" encoding="utf-8"?>
<!-- Generator: Adobe Illustrator 27.8.1, SVG Export Plug-In . SVG Version: 6.00 Build 0)  -->
<svg version="1.1" id="Layer_1" xmlns="http://www.w3.org/2000/svg" xmlns:xlink="http://www.w3.org/1999/xlink" x="0px" y="0px"
	 viewBox="0 0 100.1 97.3" style="enable-background:new 0 0 100.1 97.3;" xml:space="preserve">
<g>
	<path d="M51.4,29.8c8.7,0,17.3,0,26,0c3,0,3.8,1.3,2.2,3.9c-2,3.1-4,6.1-6.1,9.1c-1,1.5-2.4,2-4.1,1.3c-5-2.1-10.2,1.3-12.2,5.1
		c-1.3,2.3-2.9,3.3-5.6,3.2c-11.8-0.1-23.6,0-35.5,0c-1,0-2,0.1-2.9-0.4c-1.2-0.6-1.8-1.4-1-2.8c3.2-5.9,6.4-11.8,9.6-17.7
		c0.8-1.4,2.1-1.7,3.6-1.7C34.1,29.8,42.7,29.8,51.4,29.8z M50.1,33.4c-7.5,0-15,0-22.5,0c-1.7,0-2.8,0.5-3.6,2
		c-1.9,3.5-3.9,7-5.8,10.4c-0.9,1.7-0.8,2.5,1.5,2.5c10.6-0.1,21.1-0.1,31.7,0c1.3,0,2.1-0.5,2.9-1.5c3.4-4.8,7.9-7.6,14-7
		c2.4,0.3,3.7-0.6,4.8-2.5c0.3-0.5,0.7-0.9,0.9-1.5c0.3-0.6,1.3-1.1,0.8-1.9c-0.4-0.7-1.3-0.5-2.1-0.5
		C65.1,33.4,57.6,33.4,50.1,33.4z"/>
	<path d="M88.3,63.2c0.2,1.7-0.6,3.1-2.1,3.7c-1.8,0.8-3.8,0.8-5.5-0.3c-1-0.6-2-1.4-2.5-2.4c-1.5-3.1-4.2-2.3-6.6-2.5
		c-2.2-0.2-2.8,1.5-3.8,2.8c-1.8,2.4-4.2,3.4-6.9,2.7c-1.8-0.5-2.9-1.8-2.8-3.6c0.3-4.3,0.7-8.6,2.1-12.7c1.3-3.7,5.7-5.3,9-3.3
		c2.7,1.6,5.1,1.4,7.8,0.1c3.9-1.9,8.4,0,9.4,4.2C87.3,55.7,87.7,59.5,88.3,63.2z M84.1,60.4c-0.3-1.9-0.6-4.4-1.1-6.8
		c-0.6-2.8-2.5-3.5-5.1-2.2c-3.1,1.6-6.3,1.5-9.3,0.1c-3.2-1.4-4.8-0.7-5.4,2.8c-0.3,2.1-0.7,4.3-0.9,6.4c-0.1,0.9-0.6,2.2,0.5,2.7
		c1.3,0.6,1.8-0.8,2.4-1.6c0.6-0.7,1-1.5,1.5-2.3c0.5-0.7,1.1-1.4,1.9-1.5c3.1-0.3,6.3-0.5,9.4,0.1c2.1,0.4,2.2,2.5,3.2,3.9
		c0.6,0.8,1.2,1.9,2.3,1.6C84.9,63.2,84.1,61.9,84.1,60.4z"/>
</g>
</svg>
