<?xml version="1.0" encoding="utf-8"?>
<!-- Generator: Adobe Illustrator 27.8.1, SVG Export Plug-In . SVG Version: 6.00 Build 0)  -->
<svg version="1.1" id="Layer_1" fill="rgba(0, 112, 204, 1)" xmlns="http://www.w3.org/2000/svg" xmlns:xlink="http://www.w3.org/1999/xlink" x="0px" y="0px"
	 viewBox="0 0 311.1 221.9" style="enable-background:new 0 0 311.1 221.9;" xml:space="preserve">

<g id="N6Ve8x.tif">
	<g>
		<path class="st0" d="M165.8,221.8c-0.3-0.3-0.7-0.3-1-0.5c-14.6-4.6-29.2-9.3-43.8-13.9c-1.7-0.6-1.4-0.1-1.4-2
			c0-68,0-136,0-203.9c0-0.5-0.1-0.9,0.1-1.5c1.9,0.4,3.9,0.8,5.7,1.1c21,4.7,41.7,10.7,62,17.7c7.5,2.6,14.9,5.8,21.7,10
			c5.4,3.2,10.3,7.1,14.5,11.8c5.5,6.2,8.9,13.4,11,21.3c1.3,5.1,2,10.2,2.4,15.4c0.3,4.6,0.4,9.2,0.2,13.8
			c-0.4,7.1-1.7,14.2-4.8,20.8c-2.1,4.4-4.9,8.3-8.8,11.4c-4.1,3.3-8.9,5.1-14.1,5.6c-6.8,0.8-13.2-0.7-19.4-3.1
			c-1.4-0.6-2.8-1.2-4.2-1.8c-0.5-0.2-0.8-0.5-0.7-1c0-0.3,0-0.6,0-0.9c0-22.2,0-44.5,0-66.7c0-3.1,0-6.1-0.8-9.1
			c-0.3-1.4-0.8-2.7-1.4-4c-1.7-3.3-4.5-5.2-8.1-5.8c-2.3-0.4-4.1,0.3-5.5,2.1c-1.4,1.7-2.1,3.7-2.4,5.7c-0.3,1.6-0.4,3.2-0.4,4.9
			c0,23.7,0,47.4,0,71.1c0,33.4,0,66.7,0,100c0,0.6,0.1,1.1-0.1,1.7C166.1,221.8,165.9,221.8,165.8,221.8z"/>
		<path class="st0" d="M11.7,170.6c0.1-0.4,0.3-0.8,0.4-1.2c0.6-3.1,2.3-5.5,4.6-7.4c2.8-2.3,5.9-4,9.1-5.6c6.3-3.3,13-5.7,19.7-8.1
			c21.2-7.5,42.4-15,63.7-22.6c0.4-0.1,0.8-0.2,1.1-0.4c0.2,0.4,0.1,0.8,0.1,1.1c0,8.3,0,16.5,0,24.8c0,1.3,0.2,1.1-1.1,1.6
			c-14.7,5.3-29.3,10.5-43.9,15.7c-1.5,0.6-2.9,1-4.3,1.6c-1.3,0.5-2.5,1.1-3.8,1.9c-0.7,0.5-1.2,0.9-1.7,1.5
			c-1.2,1.5-1.1,3,0.5,4.2c1.6,1.2,3.4,1.7,5.4,2.2c3.8,0.8,7.5,0.8,11.3,0.7c5.2-0.3,10.2-1.1,15-2.9c4.5-1.7,9.1-3.3,13.6-5
			c2.6-0.9,5.3-1.9,7.9-2.8c0.4-0.1,0.7-0.4,1.1-0.3c0.2,0.3,0.1,0.6,0.1,0.8c0,7.4,0,14.9,0,22.2c0,0.1,0,0.2,0,0.4
			c0.1,0.6-0.2,0.8-0.8,0.8c-2.2,0.3-4.3,0.8-6.5,1c-7.7,1.1-15.4,1.6-23.1,1.5c-15.5-0.2-30.7-2.7-45.5-7.4c-3.2-1-6.4-2-9.4-3.4
			c-2.9-1.4-5.7-3-8.2-5.3c-2.2-2-3.9-4.2-4.7-7.1c-0.2-0.8-0.2-1.5-0.6-2.2C11.7,171,11.7,170.8,11.7,170.6z"/>
		<path class="st0" d="M175.3,174.1c-0.2-0.5-0.1-0.9-0.1-1.3c0-8.5,0-17,0-25.5c0-0.2,0-0.3,0-0.5c-0.1-0.7,0.2-0.9,0.8-1.1
			c3.4-1.1,6.9-2.3,10.2-3.1c6.9-1.8,13.9-3.2,21-4.2c9.1-1.3,18.2-1.8,27.5-1.3c10.7,0.5,21.2,2,31.7,4.7c6,1.6,11.8,3.7,17.6,5.8
			c2.4,0.9,4.6,2.1,6.8,3.4c2.1,1.3,4,2.8,5.6,4.7c0.8,0.8,1.3,1.7,1.9,2.7c1.6,3.1,1.5,6.2,0,9.2c-1,2.1-2.6,3.7-4.3,5.2
			c-2.8,2.4-5.9,4.2-9.1,5.9c-4.1,2.2-8.6,3.8-13,5.3c-31.8,11.4-63.6,22.8-95.3,34.2c-1.4,0.5-1.3,0.7-1.3-0.9c0-8.2,0-16.4,0-24.5
			c0-1.3,0-1.1,1.1-1.6c24.5-8.7,49.2-17.5,73.7-26.2c1.6-0.6,3.2-1.2,4.6-2.1c0.8-0.5,1.6-1.1,2.3-1.9c1.3-1.6,1.2-3.1-0.5-4.4
			c-0.8-0.6-1.6-0.9-2.5-1.3c-2-0.8-4-1.1-6.1-1.3c-8.3-0.8-16.3,0.3-24.1,3.1c-15.8,5.6-31.7,11.2-47.6,16.7
			C176,173.9,175.7,174,175.3,174.1z"/>
	</g>
</g>
</svg>
