<?xml version="1.0" encoding="utf-8"?>
<!-- Generator: Adobe Illustrator 27.8.1, SVG Export Plug-In . SVG Version: 6.00 Build 0)  -->
<svg version="1.1" id="Layer_1" xmlns="http://www.w3.org/2000/svg" xmlns:xlink="http://www.w3.org/1999/xlink" x="0px" y="0px"
	 viewBox="0 0 100.1 97.3" style="enable-background:new 0 0 100.1 97.3;" xml:space="preserve">
<g>
	<path d="M19.5,48.8c0-8.8,0-17.7,0-26.5c0-3.6,0.7-4.2,4.2-4.2c13.1,0,26.1,0,39.2,0c1.8,0,3.1,0.5,4.4,1.8
		c3.9,4.2,7.9,8.3,12,12.4c0.9,1,1.3,2,1.3,3.3c0,12.1,0,24.1,0,36.2c0,5-2.4,7.3-7.4,7.3c-16.5,0-33,0-49.5,0
		c-3.8,0-4.3-0.5-4.3-4.4C19.5,66.2,19.5,57.5,19.5,48.8z M24.6,48.7c0,7.5,0.1,15,0,22.5c0,2.2,0.8,3,2.9,2.9c15,0,30-0.1,45,0
		c2.1,0,2.7-0.8,2.7-2.8C75,60,75,48.8,75.1,37.6c0-1.3-0.4-2.4-1.3-3.3c-3-3.1-6-6.2-9-9.4c-1-1-2.1-1.2-3.4-1.2
		c-11.3,0-22.6,0.1-34,0c-2.2,0-2.9,0.6-2.9,2.8C24.7,33.8,24.6,41.3,24.6,48.7z"/>
	<path d="M39.1,69.8c-2.3,0-4.7,0-7,0c-2.3,0.1-3.4-1.1-3.5-3.3c-0.1-4.6-0.1-9.2,0-13.7c0.1-2.7,1.1-3.5,3.7-3.6c4.5,0,9,0,13.5,0
		c2.6,0,3.7,1,3.7,3.6c0.1,4.5,0.1,9,0,13.5c0,2.5-1,3.4-3.5,3.5C43.7,69.8,41.4,69.8,39.1,69.8z M32.6,59.6c0,6.5,0,6.5,6.4,6.5
		c6.5,0,6.5,0,6.5-6.5c0-6.5,0-6.5-6.5-6.5C32.6,53.2,32.6,53.2,32.6,59.6z"/>
	<path d="M43.8,30.6c3.8,0,7.6,0,11.5,0c1.7,0,3,0.5,3.3,2.3c0.3,1.9-1,2.7-2.6,3c-0.8,0.2-1.6,0.3-2.5,0.3c-6.6,0-13.1,0-19.7,0
		c-0.7,0-1.5,0-2.2-0.2c-1.5-0.4-2.9-1.1-2.7-3c0.2-1.8,1.5-2.4,3.2-2.4C36,30.6,39.9,30.6,43.8,30.6z"/>
	<path d="M62.1,53.2c-1.9,0-3.8,0-5.7,0c-1.4,0-2.8-0.3-2.8-2.1c0-1.7,1.3-1.9,2.7-1.9c4.1,0,8.1,0,12.2,0c1.3,0,2.5,0.3,2.6,1.7
		c0.1,1.6-1.2,2.2-2.5,2.2C66.4,53.2,64.2,53.1,62.1,53.2C62.1,53.1,62.1,53.2,62.1,53.2z"/>
	<path d="M62.4,57.6c2.1,0,4.2,0,6.2,0c1.2,0,2.2,0.4,2.4,1.7c0.1,1.3-0.9,2.1-2,2.2c-4.6,0.3-9.1,0.5-13.7-0.1
		c-1.1-0.1-1.9-0.7-1.7-2c0.2-1.2,0.9-1.7,2.1-1.7C57.9,57.6,60.1,57.6,62.4,57.6C62.4,57.6,62.4,57.6,62.4,57.6z"/>
	<path d="M62.1,69.7c-2.2,0-4.3,0-6.5,0c-1.1,0-2.1-0.3-2-1.6c0-1.2,0.8-1.9,1.9-1.9c4.5,0,9,0,13.5,0c1.1,0,2,0.7,2,1.9
		c0,1.2-1,1.6-2.1,1.6C66.6,69.8,64.3,69.7,62.1,69.7z"/>
</g>
</svg>
