<?xml version="1.0" encoding="utf-8"?>
<!-- Generator: Adobe Illustrator 27.9.0, SVG Export Plug-In . SVG Version: 6.00 Build 0)  -->
<svg version="1.1" id="Layer_1" xmlns="http://www.w3.org/2000/svg" xmlns:xlink="http://www.w3.org/1999/xlink" x="0px" y="0px"
	 viewBox="0 0 176.1 51.9" style="enable-background:new 0 0 176.1 51.9;" xml:space="preserve">
<style type="text/css">
	.st0{fill:#FFFFFF;}
</style>
<g>
	<path class="st0" d="M9.3,0C4.1,0,0,4.1,0,9.3v33.4c0,5.1,4.1,9.3,9.3,9.3h72.2L94.6,0H9.3z"/>
	<path d="M166.8,51.9c5.1,0,9.3-4.1,9.3-9.3V9.3c0-5.1-4.1-9.3-9.3-9.3H94.6L81.5,51.9H166.8z"/>
	<g>
		<path d="M64.7,19.5c2.8,0,5.5,0,8.3,0c0.4,0,0.6,0.1,0.6,0.6c0,0.9,0,0.9-0.8,0.9c-4.6,0-9.2,0-13.8,0c-0.4,0-0.5,0.1-0.5,0.6
			c0,0.9,0,1.7,0,2.6c0,0.8,0.3,1.2,1.1,1.2c3.5,0,7,0,10.5,0c0.6,0,1.2,0.1,1.8,0.3c1.5,0.6,2.4,2,2.3,3.7
			c-0.1,1.9-1.1,3.1-2.8,3.5C71,32.9,70.7,33,70.4,33c-4.7,0-9.4,0-14.1,0c-0.4,0-0.5-0.1-0.5-0.6c0-1-0.1-0.9,0.8-0.9
			c4,0,8.1,0,12.1,0c0.4,0,0.7,0,1.1-0.1c1.1-0.3,1.7-1.4,1.6-2.6c-0.1-1.2-1-2-2.3-2.1c-0.6,0-1.2,0-1.8,0c-3,0-6,0-9,0
			c-0.3,0-0.7,0-1-0.1c-0.9-0.2-1.5-0.9-1.5-1.9c0-1.6,0-3.2,0-4.8c0-0.4,0.2-0.4,0.5-0.4c1.9,0,3.9,0,5.8,0
			C63,19.5,63.9,19.5,64.7,19.5z"/>
		<path d="M23.8,19.5c2.3,0,4.6,0,6.9,0c0.3,0,0.7,0,1,0.1c1.8,0.4,2.8,1.9,2.7,3.9c-0.2,1.8-1.5,3.2-3.4,3.2c-3.3,0-6.5,0-9.8,0
			c-1.7,0-2.5,0.9-2.5,2.7c0,1,0,2.1,0,3.1c0,0.3-0.1,0.4-0.4,0.4c-0.6,0-1.2,0-1.8,0c-0.3,0-0.4-0.1-0.4-0.5c0-1.1,0-2.1,0-3.2
			c-0.1-2.5,1.5-4,3.7-4c3.1,0,6.3,0,9.4,0c0.3,0,0.6,0,0.9-0.1c1.1-0.3,1.7-1.2,1.6-2.4c-0.1-1-0.9-1.8-1.9-1.9c-0.2,0-0.4,0-0.7,0
			c-4.2,0-8.4,0-12.6,0c-0.4,0-0.5-0.1-0.5-0.5c0-0.9,0-0.9,0.9-0.9C19.2,19.5,21.5,19.5,23.8,19.5z"/>
		<path d="M37.5,33c-1.2,0-2.5,0-3.7,0c-0.3,0-0.4-0.1-0.4-0.4c0-1.1,0-1.1,1-1.1c1.7,0,3.5-0.1,5.2,0c1.7,0.1,2.3-1.2,2.3-2.4
			c0-1.8,0-3.6,0-5.3c0-0.4,0-0.8,0.1-1.3c0.3-1.6,1.4-2.8,3-2.9c0.8-0.1,1.6,0,2.4,0c1.8,0,3.5,0,5.3,0c0.3,0,0.5,0.1,0.5,0.5
			c0,1,0,1-0.9,1c-1.9,0-3.7,0-5.6,0c-1.3,0-2.1,0.9-2.1,2.3c0,1.9,0,3.9,0,5.8c0,2.2-1.4,3.8-3.5,3.8C39.9,33,38.7,33,37.5,33
			C37.5,33,37.5,33,37.5,33z"/>
	</g>
	<g>
		<path class="st0" d="M157.4,24.9c0,1.4,0,2.8,0,4.2c0,0.6,0.2,0.8,0.7,0.8c0.5,0,1,0,1.5,0c0.6,0,0.4,0.5,0.4,0.8
			c0,0.3,0.1,0.7-0.4,0.7c-0.6,0-1.1,0-1.7,0c-0.4,0-0.7,0.1-0.6,0.6c0.1,0.7-0.1,0.9-0.8,0.8c-0.4-0.1-0.9,0-1.4,0
			c-0.4,0-0.6-0.1-0.5-0.6c0.1-0.7-0.2-0.9-0.8-0.9c-4.3,0-8.5,0-12.8,0c-0.3,0-0.6,0-0.9-0.1c-0.6-0.2-0.8-0.7-0.3-1.2
			c0.2-0.2,0.4-0.3,0.6-0.5c4.8-3.2,9.6-6.4,14.5-9.7c0.2-0.2,0.5-0.3,0.7-0.4c1-0.4,1.7,0,1.7,1.2
			C157.4,22.1,157.4,23.5,157.4,24.9z M143.1,29.8c0.1,0,0.1,0,0.2,0c3.7,0,7.4,0,11.1,0c0.5,0,0.5-0.2,0.5-0.6c0-2.2,0-4.4,0-6.6
			c0-0.2,0.1-0.5-0.1-0.6c-0.2-0.1-0.4,0.1-0.5,0.2c-3.6,2.4-7.2,4.8-10.7,7.2C143.3,29.5,143.1,29.5,143.1,29.8z"/>
		<path class="st0" d="M109.8,19.2c2.3,0,4.6,0,6.9,0c0.3,0,0.7,0,1,0.1c1.8,0.4,2.8,1.9,2.7,3.9c-0.2,1.8-1.5,3.2-3.4,3.2
			c-3.2,0-6.5,0-9.7,0c-1.7,0-2.5,0.9-2.5,2.7c0,1,0,2.1,0,3.1c0,0.3-0.1,0.4-0.4,0.4c-0.6,0-1.2,0-1.8,0c-0.3,0-0.4-0.1-0.4-0.5
			c0-1.1,0-2.1,0-3.2c-0.1-2.5,1.5-4,3.7-4c3.1,0,6.3,0,9.4,0c0.3,0,0.6,0,0.9-0.1c1.1-0.3,1.7-1.2,1.6-2.4c-0.1-1-0.9-1.8-1.9-1.9
			c-0.2,0-0.4,0-0.7,0c-4.2,0-8.4,0-12.5,0c-0.4,0-0.5-0.1-0.5-0.5c0-0.9,0-0.9,0.9-0.9C105.3,19.2,107.6,19.2,109.8,19.2z"/>
		<path class="st0" d="M123.6,32.6c-1.2,0-2.5,0-3.7,0c-0.3,0-0.4-0.1-0.4-0.4c0-1.1,0-1.1,1-1.1c1.7,0,3.5-0.1,5.2,0
			c1.7,0.1,2.3-1.2,2.3-2.4c0-1.8,0-3.6,0-5.3c0-0.4,0-0.8,0.1-1.3c0.3-1.6,1.4-2.8,3-2.9c0.8-0.1,1.6,0,2.4,0c1.8,0,3.5,0,5.3,0
			c0.3,0,0.5,0.1,0.5,0.5c0,1,0,1-0.9,1c-1.8,0-3.7,0-5.5,0c-1.3,0-2.1,0.9-2.1,2.3c0,1.9,0,3.9,0,5.8c0,2.2-1.4,3.8-3.5,3.8
			C126,32.6,124.8,32.6,123.6,32.6C123.6,32.6,123.6,32.6,123.6,32.6z"/>
	</g>
</g>
</svg>
