<?xml version="1.0" encoding="utf-8"?>
<!-- Generator: Adobe Illustrator 27.9.0, SVG Export Plug-In . SVG Version: 6.00 Build 0)  -->
<svg version="1.1" id="Layer_1" xmlns="http://www.w3.org/2000/svg" xmlns:xlink="http://www.w3.org/1999/xlink" x="0px" y="0px"
	 viewBox="0 0 1164.8 216.1" style="enable-background:new 0 0 1164.8 216.1;" xml:space="preserve">
<style type="text/css">
	.st0{fill:#FFFFFF;}
</style>
<g>
	<path class="st0" d="M101.9,0c10.8,3,21.7,5.9,32.5,8.9c11.7,3.3,23.3,6.6,34.5,11.4c28.1,12,39.6,28.2,37.4,64.9
		c-0.2,3.1-0.8,6.2-1.6,9.3c-4.6,18.8-19.2,27.1-37.9,21.5c-8.1-2.4-8.1-2.4-8.1-10.7c0-18.4,0-36.8,0-55.2c0-3.8-0.2-7.6-1.9-11.2
		c-1.8-3.8-4.9-6.2-9.1-5.8c-4.5,0.5-5.5,4.4-5.9,8.1c-0.3,2.3-0.2,4.6-0.2,7c0,49.4,0,98.8,0,148.2c0,6.2,0,6.3-5.7,4.5
		c-11.2-3.5-22.5-7.2-33.7-10.6c-2.4-0.7-3.6-1.5-3.6-4.3c0.1-62,0.2-124,0.2-186C99.9,0,100.9,0,101.9,0z"/>
	<path class="st0" d="M0,153.3c4-6.6,10.6-10,17.4-12.6c23.2-8.6,46.5-16.8,69.7-25.3c2.4-0.9,3.2-0.3,3.2,2.3
		c-0.1,6-0.2,11.9,0,17.9c0.1,2.8-1,4-3.6,4.9c-12.9,4.5-25.6,9.1-38.4,13.7c-2,0.7-4,1.6-5.9,2.5c-1.5,0.8-3,1.8-2.9,3.7
		c0.2,1.9,1.9,2.6,3.5,3.1c7.5,2.4,15.2,1.9,22.6-0.2c6.5-1.9,12.9-4.3,19.3-6.6c5.4-1.9,5.4-1.9,5.4,4c0,3.6-0.4,7.3,0.1,10.9
		c0.6,4.7-1.7,5.8-5.7,6.4c-22.8,3.1-45.1,1-66.9-6.2c-7.2-2.4-13.7-5.8-17.7-12.6C0,157.3,0,155.3,0,153.3z"/>
	<path class="st0" d="M351.7,110.6c0-18.4,0.1-36.8-0.1-55.2c-0.1-4.3,0.8-5.9,5.6-5.8c14.3,0.4,28.6,0.1,42.9,0.1
		c18.1,0,27.9,7.8,31.7,25.8c2.4,11.3,2.1,22.5-2.9,33.1c-5.3,11.2-14,17.4-26.8,17.1c-5.2-0.1-10.3-0.1-15.5,0
		c-2.7,0.1-3.8-0.7-3.9-3.6c-0.3-9.6-0.4-9.6,9.2-9.6c13,0,16.9-3.5,18.8-16.4c1.1-7.7,0.9-15.2-1.2-22.6
		c-2.2-7.6-6.2-10.5-14.1-10.6c-5.7,0-11.3,0.3-17-0.1c-4.1-0.3-4.9,1.2-4.9,5c0.1,32.5-0.1,65,0.2,97.5c0,5.2-1.4,6.7-6.3,6.1
		c-5.1-0.6-11.7,2.1-14.9-1.1c-2.9-2.9-0.8-9.5-0.8-14.4C351.7,140.8,351.7,125.7,351.7,110.6z"/>
	<path class="st0" d="M198.7,125.3c17.2-0.1,33.7,3,49.7,9.1c4.1,1.5,7.9,3.4,11.2,6.4c5.7,5.2,5.8,11,0.2,16.3
		c-4.6,4.3-10.1,7.1-15.9,9.2c-30,10.8-60,21.5-90,32.3c-3.4,1.2-4.3,0.7-4.1-2.9c0.2-5.6,0.2-11.3,0-16.9c-0.1-2.9,1-3.9,3.6-4.9
		c20.4-7.1,40.7-14.4,61-21.6c2.3-0.8,4.7-1.7,6.9-2.7c2-0.9,4.3-2,4.1-4.4c-0.2-2.5-2.8-3.1-4.9-3.6c-8.5-2-16.9-1-25,1.7
		c-13.7,4.7-27.3,9.4-40.9,14.3c-3.8,1.4-5.2,1.3-4.9-3.3c0.3-5.3,0.3-10.6,0-15.9c-0.3-3.8,0.9-5.5,4.7-6.6
		C169,127.8,183.6,125.1,198.7,125.3z"/>
	<path class="st0" d="M615.2,138c7.1-18.2,14.2-36.4,21.1-54.6c1.3-3.4,2.8-5.2,6.7-4.8c3.5,0.4,7,0.3,10.5,0c4.4-0.4,5.4,0.6,3.6,5
		c-10.5,25.6-20.7,51.3-30.9,77c-6.9,17.2-13.9,34.4-20.7,51.7c-1,2.6-2.3,4-5.4,3.8c-3.8-0.3-7.7-0.2-11.5,0
		c-3.3,0.2-3.5-0.9-2.4-3.7c5-12.5,9.7-25,14.7-37.5c1.3-3.2,1.2-5.9,0.1-9c-9.5-27.4-18.8-54.8-28.4-82.2c-1.5-4.2-0.8-5.5,3.8-5.1
		c5.8,0.6,12.9-2.2,17,1.1c3.7,3,4.3,10.1,6.1,15.4c4.6,13.1,9,26.3,13.6,39.5C613.5,135.7,613.5,137.2,615.2,138z"/>
	<path class="st0" d="M559.6,124.9c0,14.1-0.1,28.2,0.1,42.3c0,3.2-0.9,4.4-4.2,4.2c-4.5-0.3-9-0.3-13.5,0c-3.6,0.2-4.4-1.2-4.4-4.5
		c0.1-23.2,0-46.4,0.2-69.6c0-4.4-1.1-5.9-5.6-5.5c-4.3,0.4-8.6,0.1-13,0.3c-5.4,0.3-8.8,3.3-10.8,8.2c-1.7,4.2-2.4,8.7-2.6,13.1
		c-0.3,11.6-0.5,23.2-0.2,34.8c0.2,7.5,3.2,9.9,10.7,9.9c1.8,0,3.7,0,5.5,0c7.6,0.1,6.6-0.9,6.6,6.6c0,7.4,1,6.4-6.7,6.5
		c-3.7,0-7.3-0.2-11,0c-16.6,1.1-25.7-10.5-26.6-23c-1.1-14-1.6-28.2,1.3-42.1c3.6-17.2,14.2-26.5,31.9-27.3c13-0.6,26-0.1,38.9-0.3
		c3.3-0.1,3.3,1.7,3.3,4C559.5,96.7,559.6,110.8,559.6,124.9z"/>
	<path class="st0" d="M883.9,125.3c0,13.9-0.1,27.9,0.1,41.8c0,3.1-0.8,4.5-4.2,4.2c-4.3-0.3-8.7-0.3-13,0c-3.7,0.3-4.8-0.9-4.7-4.6
		c0.2-22.9,0-45.8,0.2-68.6c0.1-4.9-1-7-6.2-6.3c-3.8,0.5-7.6,0.1-11.5,0.2c-6.5,0.2-10.4,3.6-12.3,9.7c-2.2,6.9-2.2,14.1-2.4,21.2
		c-0.2,8.8-0.6,17.6,0.3,26.3c0.7,6.9,3.1,8.9,10,9c1,0,2,0,3,0c10.5,0,10.4,0,9.5,10.3c-0.2,2.1-0.8,2.9-3,2.9
		c-6.8-0.1-13.7,0.2-20.5-0.2c-10.2-0.7-19.3-9.2-20.4-20.7c-1.6-15.1-2.2-30.5,1.3-45.5c3.8-16.6,14.6-25.3,32-26
		c12.8-0.5,25.6-0.1,38.4-0.3c3.7-0.1,3.5,2,3.5,4.4c0,0.2,0,0.3,0,0.5C883.9,97.5,883.9,111.4,883.9,125.3z"/>
	<path class="st0" d="M1088.8,124.7c0-13.9,0-27.9,0-41.8c0-1.8-0.9-4.3,2.5-4.2c14.1,0.3,28.4-1,42.4,0.6
		c18.3,2.1,28.2,13.1,30,32.8c1.7,18.7,0.5,37.5,0.8,56.2c0,2.4-1,3.1-3.3,3.1c-4.8-0.1-9.7-0.3-14.5,0c-3.5,0.2-4.1-1.2-4-4.3
		c0.1-14.4,0.1-28.9,0.1-43.3c0-6.8-0.2-13.6-1.8-20.3c-2-8.1-5.7-11.3-13.9-11.6c-5.3-0.2-12-2.2-15.5,0.8
		c-3.5,2.9-1.1,9.7-1.1,14.8c-0.1,19.6-0.2,39.2,0.1,58.7c0,4.2-1.2,5.5-5.3,5.2c-3.8-0.3-7.7-0.3-11.5,0c-3.8,0.3-5.2-0.8-5.1-4.9
		C1089,152.6,1088.8,138.6,1088.8,124.7z"/>
	<path class="st0" d="M1074.9,124.3c-0.4,9.2-0.8,17.3-3.6,25.1c-3.8,10.6-11.1,17.5-22.1,20.3c-9.3,2.4-18.8,2.4-28.1,0.1
		c-13.4-3.3-20.9-12.4-23.8-25.4c-2.8-12.8-2.8-25.7-0.1-38.5c3.3-15.3,13-24.1,28.5-26.5c7-1.1,13.9-0.9,20.8,0.3
		c15.6,2.9,25.2,14,27.3,31.8C1074.5,116.2,1074.7,120.8,1074.9,124.3z M1017.3,125.3c0.1,6.8,0.3,13.6,1.9,20.2
		c2.2,8.9,7,12.6,15.9,12.6c9,0,14-3.7,15.8-12.7c2.8-13.6,2.9-27.4,0-41c-1.9-9-6.8-12.7-15.9-12.6c-9,0-13.7,3.7-15.9,12.7
		C1017.6,111.4,1017.3,118.3,1017.3,125.3z"/>
	<path class="st0" d="M693.3,171.3c-6.2,0-12.3-0.2-18.5,0.1c-3.1,0.1-3.9-1-4-4c-0.1-9.2-0.3-9.2,9.1-9.2c7,0,14,0.1,21,0
		c9.2-0.2,14.1-4.4,15.7-13.5c0.4-2.1,0.6-4.3,0.6-6.4c-0.3-15.1-5.2-20.5-19.6-20.8c-15.5-0.3-25.7-7.9-29.6-21.3
		c-2.7-9.2-2.4-18.4,1-27.4c4.8-12.4,14.6-18.2,27.4-18.9c10.6-0.5,21.3-0.1,32-0.2c2.9,0,3.6,1,3.7,3.7c0.3,9.5,0.4,9.5-8.9,9.5
		c-6.8,0-13.7-0.1-20.5,0.1c-9.5,0.3-14.3,4.9-15.2,14.4c-0.3,2.8-0.2,5.6,0,8.4c0.7,8.5,5.5,13.1,14.1,13.8c3.5,0.3,7,0.6,10.4,0.9
		c12.9,1.1,20.9,7.3,24.6,19.8c3.2,10.6,3.1,21.3-0.2,31.8c-3.7,11.8-12.8,18.6-25.2,19.1C705.3,171.4,699.3,171.2,693.3,171.3
		C693.3,171.2,693.3,171.3,693.3,171.3z"/>
	<path class="st0" d="M923.3,122c0,8.3-0.1,16.6,0,24.9c0.2,9.1,2.7,11.2,11.8,11.4c1.9,0,4.9-1.1,5.4,1.1c0.9,3.6,0.9,7.6-0.1,11.3
		c-0.3,1.1-1.7,0.7-2.7,0.7c-2.8,0-5.7-0.2-8.5,0c-18.6,1.4-27.5-12.2-27.7-26.3c-0.4-26.2-0.1-52.4-0.2-78.6c0-2.4,0.6-3.7,3.3-3.6
		c5.2,0.2,10.3,0.1,15.5,0c2.4-0.1,3.3,0.9,3.1,3.2c-0.1,0.5,0,1,0,1.5c0.1,11.1,0.1,11.1,11.1,11.1c1.2,0,2.3,0,3.5,0
		c8.8,0,10.5,2.3,8.7,11.1c-0.4,2.2-1.8,2-3.2,2.1c-4.8,0-9.7,0.3-14.5-0.1c-4.2-0.3-5.9,0.7-5.6,5.4
		C923.6,105.4,923.3,113.7,923.3,122C923.3,122,923.3,122,923.3,122z"/>
	<path class="st0" d="M754.4,106.2c0-12.9,0.1-25.9-0.1-38.8c0-3.3,0.7-4.8,4.4-4.5c4.6,0.3,9.3,0.2,14,0c2.9-0.1,4,1,3.6,3.8
		c0,0.2,0,0.3,0,0.5c0.4,3.7-1.7,8.8,1,10.8c2.5,1.9,7.3,0.6,11.1,0.7c1.5,0,3,0,4.5,0c7.5,0.1,6.6-1.1,6.6,6.6
		c0,7.4,1.1,6.5-6.6,6.6c-4.3,0-8.7,0.1-13,0c-2.4-0.1-3.6,0.5-3.6,3.3c0.1,17.9,0,35.8,0.2,53.7c0.1,7,3,9.2,10,9.4
		c2.3,0.1,6-1.4,6.8,1.1c1,3.3,0.4,7.2,0.2,10.8c-0.1,1.5-1.8,1.1-2.9,1.1c-4.8,0-9.7,0.2-14.5-0.1c-12-0.8-21.3-11.7-21.6-25.7
		C754.2,132.4,754.4,119.3,754.4,106.2C754.4,106.2,754.4,106.2,754.4,106.2z"/>
	<path class="st0" d="M468,110.4c0,18.7-0.1,37.4,0.1,56.2c0,3.6-0.8,5.1-4.7,4.8c-4.3-0.3-8.7-0.3-13,0c-3.2,0.2-4.3-0.8-4.3-4.1
		c0.2-9.4,0.1-18.9,0.1-28.3c0-28,0.1-56-0.1-84c0-4.1,0.9-5.7,5.2-5.3c3.8,0.4,7.7,0.3,11.5,0c4.1-0.4,5.4,0.9,5.3,5.1
		C467.9,73.3,468,91.9,468,110.4z"/>
	<path class="st0" d="M981.3,125.5c0,13.9-0.1,27.8,0.1,41.7c0,3.3-0.9,4.3-4.2,4.1c-4.3-0.3-8.7-0.4-12.9,0
		c-4.3,0.4-4.8-1.6-4.8-5.2c0.1-20.5,0.1-41.1,0.1-61.6c0-7.3,0.1-14.6-0.1-21.9c-0.1-3.3,1-4.4,4.3-4.2c4.5,0.3,9,0.3,13.5,0
		c3.3-0.2,4.2,0.9,4.2,4.2C981.2,97,981.3,111.2,981.3,125.5z"/>
	<path class="st0" d="M970.9,49.7c10.4,0,10.4,0,10.4,10.3c0,7.9,0,7.9-8.3,7.9c-13.6,0-13.4,0-13.6-13.3c0-4,1.1-5.4,5.1-4.9
		C966.6,49.9,968.8,49.7,970.9,49.7z"/>
</g>
</svg>
