<?xml version="1.0" encoding="utf-8"?>
<!-- Generator: Adobe Illustrator 27.8.1, SVG Export Plug-In . SVG Version: 6.00 Build 0)  -->
<svg version="1.1" id="Layer_1" xmlns="http://www.w3.org/2000/svg" xmlns:xlink="http://www.w3.org/1999/xlink" x="0px" y="0px"
	 viewBox="0 0 100.1 97.3" style="enable-background:new 0 0 100.1 97.3;" xml:space="preserve">
<g>
	<path d="M16.6,48.6c-0.6-17.9,14.7-34,34.6-33.5C69,15.6,83.7,29.7,83.6,49.3C83.4,67.5,68.2,82.6,49,82.2
		C32.2,81.8,15.8,67.1,16.6,48.6z M21.2,48.7c-0.8,14.6,12.5,29,29,28.9C65.1,77.5,79,65.2,78.9,48.8c0-16.9-13.3-29.1-28.9-29.1
		C33.5,19.6,20.6,33.4,21.2,48.7z"/>
	<path d="M60.2,38.8c0.4,3.9-2,6.1-4.8,7.8c-2.5,1.5-4.7,2.9-4.3,6.3c0.2,1.4-1.2,1.3-2.2,1.3c-1.1,0-1.8-0.3-1.8-1.5
		c0.1-2.7,0.2-5.3,2.9-7c1.6-1,3.2-2.2,4.7-3.3c1.9-1.4,2.5-3.7,1.3-5.7c-1.5-2.5-3.7-3.7-6.6-3.7c-2.9,0-5,1.4-6,4
		c-0.5,1.5-1.4,1.6-2.6,1.6c-1.4,0-1.6-0.6-1.3-1.9c1.2-4.4,4.2-6.8,8.4-7.5c4.3-0.7,8,1,10.7,4.5C59.7,35.2,60.5,36.8,60.2,38.8z"
		/>
	<path d="M49.2,67.8c-2.1,0-3.6-1.6-3.6-3.7c0-2.3,1.5-3.8,3.7-3.7c2,0.1,3.7,1.8,3.7,3.9C53,66.1,51.1,67.8,49.2,67.8z"/>
</g>
</svg>
