<?xml version="1.0" encoding="utf-8"?>
<!-- Generator: Adobe Illustrator 27.8.1, SVG Export Plug-In . SVG Version: 6.00 Build 0)  -->
<svg version="1.1" id="Layer_1" xmlns="http://www.w3.org/2000/svg" xmlns:xlink="http://www.w3.org/1999/xlink" x="0px" y="0px"
	 viewBox="0 0 100.1 97.3" style="enable-background:new 0 0 100.1 97.3;" xml:space="preserve">
<g>
	<path d="M50,66.7c-9.7,0-19.5,0-29.2,0c-3.7,0-4.1-0.3-4.1-4c0-12.5,0-25,0-37.5c0-3.2,0.9-4.1,4.2-4.2c19.4,0,38.8,0,58.2,0
		c3.5,0,4.3,0.9,4.3,4.3c0,12.4,0,24.8,0,37.2c0,3.8-0.3,4.1-4.2,4.1C69.5,66.8,59.7,66.7,50,66.7z M50.3,25.2c-9.2,0-18.3,0-27.5,0
		c-2,0-2.6,0.6-2.6,2.6c0.1,11,0.1,22,0,33c0,1.8,0.6,2.5,2.4,2.5c18.2,0,36.5,0,54.7,0c1.9,0,2.4-0.7,2.4-2.5c-0.1-11-0.1-22,0-33
		c0-2-0.6-2.6-2.5-2.6C68.3,25.2,59.3,25.2,50.3,25.2z"/>
	<path d="M50.2,72.6c5,0,10,0,15,0c1.3,0,3-0.1,2.9,1.8c-0.1,1.7-1.6,1.8-3,1.8c-10,0-20,0-30,0c-1.5,0-2.9-0.3-2.9-2
		c0-1.8,1.5-1.6,2.8-1.7C40,72.6,45.1,72.6,50.2,72.6z"/>
	<path d="M43.3,43.7c0-2.9,0-5.8,0-8.7c0-1.1,0.2-2.2,1.3-2.8c1.2-0.7,2,0.1,2.9,0.7c3.9,2.8,7.9,5.5,11.9,8.2c2.9,2,3,3,0.2,4.9
		c-4.1,2.9-8.1,5.7-12.3,8.6c-2.1,1.4-3.8,0.6-3.9-1.9C43.2,49.6,43.3,46.6,43.3,43.7C43.3,43.7,43.3,43.7,43.3,43.7z M47.3,43.3
		c0,1.8,0,3.2,0,4.6c0,1.2,0.5,1.6,1.5,0.9c1.2-0.8,2.4-1.7,3.6-2.6c3.6-2.6,3.6-2.6,0-5.1c-1.5-1-3.1-3.4-4.7-2.5
		C46.5,39.2,47.5,41.9,47.3,43.3z"/>
</g>
</svg>
