<?xml version="1.0" encoding="utf-8"?>
<!-- Generator: Adobe Illustrator 27.8.1, SVG Export Plug-In . SVG Version: 6.00 Build 0)  -->
<svg version="1.1" id="Layer_1" xmlns="http://www.w3.org/2000/svg" xmlns:xlink="http://www.w3.org/1999/xlink" x="0px" y="0px"
	 viewBox="0 0 100.1 97.3" style="enable-background:new 0 0 100.1 97.3;" xml:space="preserve">
<g>
	<path d="M29.7,30.7c6.1,0,6,0,7-6c0.4-2.5,0.9-5.1,2-7.4c1.7-3.7,4.4-4.5,7.8-2.4c0.6,0.4,1.1,0.9,2,0.4c4.5-2.4,6.9-1.6,9.3,2.9
		c1.6,3,2.6,6.2,3.1,9.6c0.3,2,1,3.2,3.3,2.9c3-0.4,5.9,0.7,8.8,1.3c2,0.5,2.7,1.7,2.8,3.5C76.7,45.8,77.3,56,78,66.2
		c0.2,2.8,0.5,5.6,0.8,8.4c0.2,1.4-0.3,2.4-1.6,3.1c-3.6,1.8-7.3,3.6-10.9,5.4c-1,0.5-2.1,0.5-3.2,0.4C51.2,81.7,39.1,80,27,78.1
		c-5.8-0.9-5.9-1-5.8-6.9c0.4-12.6,1-25.3,1.4-37.9c0.1-1.9,0.9-2.7,2.8-2.6C26.9,30.7,28.3,30.7,29.7,30.7z M47.6,34.3
		c-5.5,0-11.1,0-16.6,0c-4.6,0-4.6,0-4.7,4.7c0,0.4,0,0.8-0.1,1.2c-0.4,10.7-0.9,21.3-1.3,32c-0.1,1.5,0.4,2.2,2,2.4
		c9.6,1.3,19.2,2.4,28.7,4.2c6.1,1.1,11.6,1.1,17-2.5c1.9-1.2,2.6-2.4,2.4-4.5c-0.9-10.4-1.7-20.9-2.4-31.4c-0.3-5.2-0.4-5.4-5.6-6
		c-0.7-0.1-1.5-0.1-2.2-0.1C59,34.3,53.3,34.3,47.6,34.3z M55.7,30.7c3.6,0,3.9-0.3,3.2-3.3c-0.7-3.3-1.7-6.5-3.8-9.3
		c-0.6-0.9-1.3-1.4-2.2-1.9c-1.2-0.6-2,0.1-2.9,0.8c-0.9,0.7-0.8,1.5-0.3,2.4c1.4,2.7,2.3,5.5,2.6,8.5
		C52.7,30.3,53.7,31.1,55.7,30.7z M38.6,27.5c0.4,1-0.7,2.3,0.3,2.9c1.3,0.7,2.9,0.4,4.4,0.2c1.2-0.2,1.2-1.5,1.2-2.4
		c0.1-3.1,0.6-6.1,1.7-8.9c0.3-0.8,0-1.4-0.4-2c-1.2-1.6-2.8-1.7-4.1,0C39.3,20.2,39,23.9,38.6,27.5z M47.9,21.8
		c-1.3,2.8-1.5,5.5-1.1,8.1c0.2,1.2,1.5,0.7,2.3,0.7c0.7,0,1.4-0.3,1.3-1.1C49.9,26.9,49.8,24.3,47.9,21.8z"/>
	<path d="M44.1,55.6c0-3.6,0-7.3,0-10.9c0-3.3,0-3.4,3.1-2.6c3.5,0.9,7.1,1.6,10.2,3.8c3,2.1,4.2,7.7,2.2,10.7
		c-1.1,1.6-2.7,2-4.6,1.6c-2-0.5-1.4-2-1.4-3.2c-0.1-2.2,0-4.5,0-6.7c0-1.2-0.2-2.4-1.7-2.5c-1.5-0.1-1.9,1.2-2,2.4
		c-0.2,2.4-0.1,4.8-0.1,7.2c0,4.6-0.1,9.1,0,13.7c0,1.7-0.6,1.9-2.1,1.6c-3.3-0.8-3.5-1-3.5-4.5C44.1,62.6,44.1,59.1,44.1,55.6z"/>
	<path d="M59.6,60.5c2.9-0.3,5.7,0.4,8.4,1.5c1.8,0.7,2,2,0.4,2.8c-4.8,2.4-10.1,3.6-15.1,5.4c-0.6,0.2-1-0.1-1.1-0.6
		c-0.1-1,0-1.8,1.1-2.2c2.6-0.8,5.2-1.6,7.7-2.6c1.1-0.4,3.2-0.3,2.9-2c-0.3-1.5-2.3-0.9-3.5-0.7c-2.1,0.4-4.1,1.2-6.2,1.7
		c-0.7,0.2-1.6,1.1-2-0.3c-0.3-1.1,0.1-1.9,1.3-2.3C55.4,60.6,57.4,60.4,59.6,60.5z"/>
	<path d="M37.7,67.7c-2.4,0.1-4.8-0.4-7-1.3c-0.8-0.3-1.6-0.7-1.6-1.7c0-0.9,0.7-1.4,1.4-1.6c3.5-1.4,7.1-2.6,10.7-3.9
		c0.6-0.2,1-0.1,1,0.6c0,0.9,0.1,1.9-1,2.3c-1.7,0.6-3.4,1.3-5.1,1.9c-0.7,0.3-1.6,0.4-1.5,1.3c0.1,1,1.1,1.1,1.9,1.2
		c1.5,0.2,2.9-0.5,4.3-0.9c0.5-0.1,1.2-0.5,1.4,0.4c0.1,0.7-0.1,1.4-0.9,1.5C40.1,67.6,38.9,67.6,37.7,67.7z"/>
</g>
</svg>
