<?xml version="1.0" encoding="utf-8"?>
<!-- Generator: Adobe Illustrator 27.8.1, SVG Export Plug-In . SVG Version: 6.00 Build 0)  -->
<svg version="1.1" id="Layer_1" fill="rgba(57, 57, 57, 1)" xmlns="http://www.w3.org/2000/svg" xmlns:xlink="http://www.w3.org/1999/xlink" x="0px" y="0px"
	 viewBox="0 0 223 221.9" style="enable-background:new 0 0 223 221.9;" xml:space="preserve">

<g id="M92exR.tif">
	<g>
		<path class="st0" d="M213.9,221.9c-1.5,0-3,0-4.9,0c-3.4-1.1-5.7-3.4-8-5.7c-18.2-18.2-36.5-36.5-55.1-54.7
			c-0.8-0.8-1.5-1.5-2.7-0.4c-23.6,16.7-49.8,22.4-78.3,13.7c-34.2-10.3-55.1-33.4-63.1-68c-0.8-3.4-1.1-7.2-1.9-10.6
			c0-4.6,0-9.1,0-14.1c0.4-0.4,0.4-1.1,0.4-1.5C1.5,71.1,4.2,62,8,53.2C25.1,14.5,66.5-6,107.1,1.6c40.3,7.6,71,43.3,72.2,84.3
			c0.8,20.9-5.3,39.9-17.5,56.6c-1.1,1.5-0.8,2.3,0.4,3.4c18.2,18.2,36.5,36.5,55.1,54.7c2.3,2.3,4.6,4.9,5.7,8c0,1.5,0,3,0,4.9
			C221.1,217.7,218.4,220.4,213.9,221.9z M90,156.6c37.2,0,67.2-30.4,67.2-67.2S126.9,22.1,90,22.5c-37.2,0.4-67.2,30.4-67.2,67.2
			C22.4,126.2,53.2,156.6,90,156.6z"/>
	</g>
</g>
</svg>
